<svg width="529" height="646" viewBox="0 0 529 646" fill="none" xmlns="http://www.w3.org/2000/svg">
<path d="M67.1555 489.384C30.015 474.585 1.99999 433.668 1.99999 394.222L1.99998 270.525C1.99998 216.559 28.5372 173.778 72.1019 157.512L116.466 140.949C84.7596 145.115 90.0753 195.533 123.728 209.832L474.727 358.967C505.594 372.082 528.543 406.283 528.543 439.17L528.543 585.97C528.543 632.438 490.141 657.922 446.389 640.489L67.1555 489.384Z" fill="white"/>
<path d="M65.1556 154.454C28.015 169.048 -1.01051e-05 209.4 -8.40463e-06 248.301L-2.58777e-06 381.375C-5.84635e-07 427.202 38.4021 452.334 82.1543 435.142L461.387 286.123C498.528 271.528 526.543 231.177 526.543 192.275L526.543 59.2013C526.543 13.3749 488.141 -11.7577 444.388 5.43464L65.1556 154.454Z" fill="#FFC300"/>
</svg>
